# xmcd CD database file
#
# Track frame offsets:
#	150
#	35727
#	82905
#
# Disc length: 2245 seconds
#
# Revision: 0
# Processed by: cddbd v1.5.2PL0 Copyright (c) Steve Scherf et al.
# Submitted via: CDex 1.70beta2
#
DISCID=1a08c303
DTITLE=Mechali - Guerin - Conversations
DYEAR=1981
DGENRE=Jazz
TTITLE0=Rappel
TTITLE1=Grand II
TTITLE2=Arca
EXTD=YEAR: 1981
EXTT0=
EXTT1=
EXTT2=
PLAYORDER=
